<?xml version="1.0" standalone="no"?>
<svg viewBox="0 0 200 200" xmlns="http://www.w3.org/2000/svg">
  <path fill="#8A3FFC" d="M41.4,-54.8C50.1,-50.6,51.4,-33.8,56.6,-18.3C61.9,-2.7,71.2,11.7,68.1,22.3C64.9,32.9,49.3,39.7,35.9,47.8C22.5,56,11.2,65.6,0.7,64.6C-9.9,63.7,-19.8,52.3,-35.4,44.8C-51,37.4,-72.4,33.9,-80.9,22.7C-89.4,11.6,-85.1,-7.3,-74.9,-19.9C-64.6,-32.4,-48.6,-38.5,-35.1,-41.2C-21.6,-43.9,-10.8,-43.1,2.7,-46.8C16.3,-50.6,32.6,-59,41.4,-54.8Z" transform="translate(100 100)" />
</svg>
