<?xml version="1.0" standalone="no"?>
<svg viewBox="0 0 200 200" xmlns="http://www.w3.org/2000/svg">
  <path fill="#8A3FFC" d="M24.1,-38.7C31.5,-27.7,38.1,-21.1,49.2,-10.4C60.3,0.2,75.9,15,75.6,27.1C75.2,39.3,58.8,48.8,43.5,56.4C28.3,64,14.1,69.7,2.5,66.2C-9.1,62.8,-18.2,50.2,-29.5,41.3C-40.8,32.4,-54.3,27.2,-61.1,17.3C-67.8,7.4,-67.7,-7.3,-65.7,-23.7C-63.7,-40.2,-59.6,-58.4,-48.4,-68.1C-37.1,-77.9,-18.5,-79.3,-5.1,-72.2C8.3,-65.2,16.6,-49.8,24.1,-38.7Z" transform="translate(100 100)" />
</svg>
